<?xml version="1.0" standalone="no"?>
<!DOCTYPE svg PUBLIC "-//W3C//DTD SVG 20010904//EN"
 "http://www.w3.org/TR/2001/REC-SVG-20010904/DTD/svg10.dtd">
<svg version="1.0" xmlns="http://www.w3.org/2000/svg"
 width="512.000000pt" height="512.000000pt" viewBox="0 0 512.000000 512.000000"
 preserveAspectRatio="xMidYMid meet">
<metadata>
Created by potrace 1.14, written by Peter Selinger 2001-2017
</metadata>
<g transform="translate(0.000000,512.000000) scale(0.100000,-0.100000)"
fill="#000000" stroke="none">
<path d="M865 5104 c-341 -82 -609 -291 -754 -589 -35 -72 -71 -163 -69 -173
0 -4 -1 -14 -5 -22 -9 -24 -18 -62 -25 -105 -10 -55 -9 -3249 1 -3306 7 -47
32 -139 46 -174 84 -208 198 -368 341 -481 30 -24 60 -48 65 -52 33 -27 180
-105 220 -118 6 -2 37 -13 69 -24 32 -12 82 -25 110 -31 28 -5 62 -12 76 -15
35 -9 3129 -12 3198 -3 32 4 73 10 92 14 19 4 42 8 50 9 8 1 44 12 80 24 36
12 69 22 74 21 5 0 12 3 15 8 3 5 26 17 51 28 25 10 52 25 61 32 8 7 21 13 27
13 7 0 12 5 12 10 0 6 5 10 10 10 35 0 300 244 300 276 0 3 11 20 25 38 14 18
25 38 25 44 0 6 4 12 9 14 30 12 126 276 139 388 9 71 9 3202 0 3255 -39 238
-141 438 -308 607 -79 79 -256 208 -286 208 -7 0 -14 4 -16 10 -1 5 -12 11
-23 13 -11 2 -38 11 -59 20 -22 10 -63 24 -91 33 -29 8 -63 18 -76 22 -13 4
-766 8 -1674 9 -1405 1 -1659 -1 -1710 -13z"/>
</g>
</svg>
